<?xml version="1.0" standalone="no"?>
<!DOCTYPE svg PUBLIC "-//W3C//DTD SVG 20010904//EN"
 "http://www.w3.org/TR/2001/REC-SVG-20010904/DTD/svg10.dtd">
<svg version="1.0" xmlns="http://www.w3.org/2000/svg"
 width="300.000000pt" height="300.000000pt" viewBox="0 0 300.000000 300.000000"
 preserveAspectRatio="xMidYMid meet">
<metadata>
Created by potrace 1.16, written by Peter Selinger 2001-2019
</metadata>
<g transform="translate(0.000000,300.000000) scale(0.100000,-0.100000)"
fill="#000000" stroke="none">
<path d="M0 1500 l0 -1500 1500 0 1500 0 0 1500 0 1500 -1500 0 -1500 0 0
-1500z m2683 1316 c10 -11 15 -14 11 -6 -5 8 11 -1 35 -20 57 -44 124 -135
153 -208 23 -56 23 -62 26 -539 l3 -482 -88 -66 c-154 -114 -379 -218 -609
-281 -54 -15 -101 -29 -103 -30 -1 -2 20 -45 48 -97 28 -52 51 -97 51 -100 0
-3 -25 5 -55 19 -72 31 -176 66 -182 60 -2 -2 22 -18 54 -35 84 -45 249 -176
276 -219 13 -20 52 -91 87 -156 l63 -119 -64 37 c-202 116 -417 212 -584 262
l-109 32 3 89 c1 49 -1 106 -4 127 l-8 38 -108 -4 c-60 -1 -109 0 -109 4 0 4
25 44 55 89 30 45 55 85 55 90 0 17 -91 51 -122 45 -127 -25 -222 -222 -198
-411 4 -33 6 -61 5 -62 -1 -2 -50 -17 -108 -33 -166 -48 -393 -149 -595 -266
-59 -34 -63 -35 -52 -13 7 13 83 155 170 314 229 421 339 628 438 822 48 95
90 173 94 173 5 0 29 -15 55 -34 56 -39 215 -120 168 -84 -16 12 -68 59 -114
104 l-84 81 81 189 c44 104 96 225 114 270 18 44 38 81 43 81 6 0 47 -86 93
-191 46 -105 128 -283 183 -395 l99 -204 20 26 c11 14 20 28 20 32 0 4 8 15
19 24 10 9 21 25 25 36 3 11 22 38 41 59 19 22 35 46 35 53 0 8 7 16 15 19 8
4 12 10 9 15 -3 5 0 9 6 9 6 0 18 16 26 35 8 19 19 35 24 35 6 0 10 4 10 9 0
6 11 22 25 37 14 15 25 33 25 40 0 6 20 37 45 67 25 31 45 60 45 66 0 6 4 11
10 11 5 0 16 15 25 33 17 36 34 65 53 85 6 7 26 35 44 60 18 26 36 52 40 57 4
6 25 35 45 65 20 30 40 58 45 61 6 3 8 9 6 12 -1 4 6 17 17 29 11 13 19 26 17
30 -1 4 7 12 18 18 11 6 20 17 20 25 0 8 4 15 9 15 5 0 12 8 16 19 3 10 15 29
26 42 l20 23 -26 13 c-14 8 -25 16 -25 19 0 10 66 -29 83 -50z"/>
</g>
</svg>
